<svg xmlns="http://www.w3.org/2000/svg" fill="none" viewBox="0 0 120 120">
  <g fill="#282138" clip-path="url(#a)">
    <path d="m97.848 25.184-3.295 3.295a46.644 46.644 0 0 1 0 62.954l3.295 3.295a51.358 51.358 0 0 0 0-69.62v.076ZM28.555 25.47a46.645 46.645 0 0 1 62.955 0l3.295-3.295a51.357 51.357 0 0 0-69.621 0l3.371 3.294ZM25.469 91.466a46.645 46.645 0 0 1 0-62.921l-3.295-3.295a51.356 51.356 0 0 0 0 69.62l3.295-3.404ZM91.466 94.508a46.643 46.643 0 0 1-62.954 0l-3.295 3.295a51.356 51.356 0 0 0 69.62 0l-3.37-3.294ZM80.803 49.006c-.66-6.875-6.59-9.182-14.092-9.885v-9.467h-5.799v9.292h-4.634v-9.292h-5.755v9.533H38.76v6.206s4.283-.077 4.217 0a2.998 2.998 0 0 1 3.295 2.548v26.095a2.032 2.032 0 0 1-.703 1.417 2.01 2.01 0 0 1-1.494.505c.077.066-4.217 0-4.217 0l-1.098 6.93h11.653v9.688h5.799V83.03h4.634v9.5h5.81v-9.577c9.797-.593 16.629-3.009 17.485-12.18.692-7.38-2.778-10.675-8.325-12.004 3.372-1.659 5.459-4.734 4.987-9.764Zm-8.128 20.626c0 7.205-12.345 6.381-16.277 6.381V63.23c3.932.011 16.277-1.12 16.277 6.403Zm-2.69-18.012c0 6.59-10.303 5.788-13.576 5.788v-11.62c3.273 0 13.575-1.032 13.575 5.832Z"/>
    <path d="M59.989 120A60.004 60.004 0 0 1 4.565 82.956 60 60 0 1 1 59.99 120Zm0-115.321a55.288 55.288 0 1 0 .088 110.577 55.288 55.288 0 0 0-.088-110.577Z"/>
  </g>
  <defs>
    <clipPath id="a">
      <path fill="#fff" d="M0 0h120v120H0z"/>
    </clipPath>
  </defs>
</svg>
