<svg width="60" height="46" fill="none" xmlns="http://www.w3.org/2000/svg"><path fillRule="evenodd" clipRule="evenodd" d="M19.03 1.54A2.68 2.68 0 0121.46 0h11.48c.95 0 1.82.49 2.3 1.29L59.62 41.6c.5.82.5 1.84.03 2.66a2.69 2.69 0 01-2.33 1.34h-12a2.7 2.7 0 01-1.9-.77 31.32 31.32 0 00-16.15-8.17c-6.8-1.09-14.81.4-22.7 8.17a2.71 2.71 0 01-3.42.3 2.62 2.62 0 01-.9-3.28L19.02 1.54zm7.1 3.75L46.86 40.3h5.74L31.42 5.3h-5.29zm10.89 28.89L21.75 8.37 9.55 34.55a29.17 29.17 0 0118.58-3.1c3.2.5 6.2 1.5 8.89 2.73z" fill="#000"/></svg>
