<svg xmlns="http://www.w3.org/2000/svg" fill="none" viewBox="0 0 120 120">
  <circle cx="60" cy="60" r="60" fill="#67E8F9"/>
  <path fill="#1E293B" stroke="#1E293B" stroke-width="4" d="m45.0065 80.5388.0221-.0428.0181-.0449L63.2222 35.247l19.3357 38.4604c.3273.69.4496 1.218.4496 1.6082 0 .3247-.0743.5998-.2158.847-.5445.8304-1.394 1.8993-2.5703 3.216l-.0051.0062-.0057.0062-1.44 1.6645a2.0644 2.0644 0 0 0 .338 3.0137l4.6168 3.3971c.3691.3051.8331.5337 1.3765.5337.6545 0 1.231-.2896 1.7115-.6777l.0413-.0335.0377-.0372 3.6485-3.6304.0098-.0093.0093-.0098c.9512-.9967 1.44-2.2075 1.44-3.5809 0-.7593-.1486-1.5691-.4175-2.4181l-.0047-.0139-.0046-.014c-.7273-2.0851-1.7931-4.546-3.1897-7.377l-.0016-.0026-21.9814-44.2271-.0015-.0031c-.2653-.5435-.5523-1.0519-.8671-1.3729-.4026-.4433-.9461-.5925-1.4447-.5925h-6.7886c-.5672 0-1.1381.2095-1.5241.7339l-.0248.0336-.0217.0356c-.1394.2255-.3391.6596-.577 1.2077l-.0057.0135-.0057.0134a29.7525 29.7525 0 0 0-.4759 1.2464l-16.945 45.743-.001.0015c-1.1386 3.0462-1.9995 5.135-2.5874 6.3051l-.0093.0186-.0087.0196c-.4656 1.0286-1.2006 1.8616-2.2375 2.5068l-.0036.0021-.0031.002a14.954 14.954 0 0 1-1.9262 1.0406c-.7029.2802-1.3068.5765-1.7858.897-.3907.2544-.7277.5873-.9491 1.0162-.1022.1988-.207.4708-.207.7866 0 .2865.0723.5786.2374.8429.3417.6033.959.7721 1.4416.7721h15.1948c.5027 0 .9616-.1626 1.3579-.4418a2.4257 2.4257 0 0 0 .9203-1.057l.0212-.0465.0165-.048a1.8587 1.8587 0 0 0 .1022-.6044c0-.6519-.3938-1.1871-.7407-1.5571l-.0557-.0594-.0645-.0501a73.1601 73.1601 0 0 0-1.0596-.8051c-.1977-.1636-.3443-.3763-.4388-.6679l-.0123-.0392-.0155-.0377a1.3067 1.3067 0 0 1-.1069-.5032c0-.2338.0589-.4914.2086-.782Z"/>
</svg>
