<svg xmlns="http://www.w3.org/2000/svg" fill="none" viewBox="0 0 120 120">
  <g clip-path="url(#a)">
    <path fill="#F7931A" d="M60 116.381c31.175 0 56.447-25.272 56.447-56.447 0-31.175-25.272-56.447-56.447-56.447-31.175 0-56.447 25.272-56.447 56.447 0 31.175 25.272 56.447 56.447 56.447Z"/>
    <path fill="#000" d="M60 120a60 60 0 1 1 60-60 60.073 60.073 0 0 1-60 60ZM60 3.553A56.452 56.452 0 1 0 116.452 60 56.512 56.512 0 0 0 60 3.553Z"/>
    <path fill="#000" d="M108.002 60a47.856 47.856 0 0 0-11.36-30.998l6.062-6.067-5.76-5.761-6.068 6.072a47.964 47.964 0 0 0-62.142.222l-6.087-6.115-5.784 5.766 6.133 6.133a48.127 48.127 0 0 0-7.426 12.23h8.294a40.576 40.576 0 1 1-.066 36.91h-8.26a48.125 48.125 0 0 0 7.642 12.55l-6.09 6.09 5.76 5.761 6.086-6.072a47.955 47.955 0 0 0 61.737.222l6.09 6.091 5.762-5.761-6.054-6.072A47.855 47.855 0 0 0 108.002 60Z"/>
    <path fill="#000" d="m29.206 71.144-4.719-7.162h6.78V61.28H8.965v2.703h6.808l-4.718 7.162h3.524l5.549-8.393 5.553 8.417 3.524-.024Zm2.061-12.489v-2.731H24.62l4.662-7.078h-3.524l-5.63 8.54-5.628-8.53h-3.524l4.666 7.077H8.965v2.727l22.302-.005ZM73.908 45.435c-1.93-5.501-7.19-6.162-13.352-5.19l-1.925-7.784-4.718 1.174L55.8 41.25c-1.222.33-2.49.656-3.713.986L50.2 34.574l-4.718 1.175 1.93 7.804a98.14 98.14 0 0 1-2.963.802v-.047l-6.455 1.642 1.27 5.076s3.43-.943 3.382-.844c1.887-.472 2.774.471 3.199 1.415l2.208 8.931c.168-.054.343-.085.52-.094l-.52.142 3.057 12.503a1.745 1.745 0 0 1-1.363 2.019c.094.047-3.43.85-3.43.85l.472 5.92 6.133-1.552c1.128-.278 2.26-.561 3.34-.797l1.926 7.898 4.718-1.175-1.93-7.85c1.316-.284 2.538-.614 3.775-.893l1.93 7.8 4.717-1.175-1.93-7.894c7.757-2.448 12.787-5.879 11.612-13.588-.944-6.204-4.416-8.176-9.163-8.13 2.397-2.118 3.477-5.033 2.067-9.072l-.076-.005Zm-2.397 18.566c1.458 5.926-8.695 7.756-11.847 8.554l-2.576-10.479c3.19-.74 12.918-4.185 14.423 1.925Zm-5.784-14.197c1.316 5.36-7.143 6.865-9.776 7.52l-2.359-9.492c2.642-.708 10.724-3.666 12.135 1.972Z"/>
  </g>
  <defs>
    <clipPath id="a">
      <path fill="#fff" d="M0 0h120v120H0z"/>
    </clipPath>
  </defs>
</svg>
